<svg width="50" height="48" viewBox="0 0 50 48" fill="none" xmlns="http://www.w3.org/2000/svg">
<g clip-path="url(#clip0_2_30)">
<path d="M25 46.875C19.1984 46.875 13.6344 44.5703 9.53204 40.468C5.42968 36.3656 3.125 30.8016 3.125 25C3.125 19.1984 5.42968 13.6344 9.53204 9.53204C13.6344 5.42968 19.1984 3.125 25 3.125C30.8016 3.125 36.3656 5.42968 40.468 9.53204C44.5703 13.6344 46.875 19.1984 46.875 25C46.875 30.8016 44.5703 36.3656 40.468 40.468C36.3656 44.5703 30.8016 46.875 25 46.875ZM25 50C31.6304 50 37.9893 47.3661 42.6777 42.6777C47.3661 37.9893 50 31.6304 50 25C50 18.3696 47.3661 12.0107 42.6777 7.32233C37.9893 2.63392 31.6304 0 25 0C18.3696 0 12.0107 2.63392 7.32233 7.32233C2.63392 12.0107 0 18.3696 0 25C0 31.6304 2.63392 37.9893 7.32233 42.6777C12.0107 47.3661 18.3696 50 25 50Z" fill="white"/>
<path d="M19.5969 15.7969C19.8524 15.6653 20.1394 15.6067 20.4261 15.6277C20.7128 15.6486 20.9881 15.7483 21.2219 15.9156L32.1594 23.7281C32.3619 23.8727 32.527 24.0635 32.6409 24.2847C32.7548 24.5059 32.8143 24.7512 32.8143 25C32.8143 25.2488 32.7548 25.4941 32.6409 25.7153C32.527 25.9365 32.3619 26.1273 32.1594 26.2719L21.2219 34.0844C20.9882 34.2516 20.713 34.3512 20.4264 34.3721C20.1399 34.3931 19.8531 34.3346 19.5976 34.2031C19.3421 34.0717 19.1278 33.8723 18.9783 33.627C18.8288 33.3816 18.7498 33.0998 18.75 32.8125V17.1875C18.7497 16.9003 18.8286 16.6185 18.978 16.3732C19.1274 16.1278 19.3415 15.9284 19.5969 15.7969Z" fill="white"/>
</g>
<defs>
<clipPath id="clip0_2_30">
<rect width="50" height="50" fill="white"/>
</clipPath>
</defs>
</svg>
